<svg id="Layer_1" data-name="Layer 1" xmlns="http://www.w3.org/2000/svg" viewBox="0 0 152.5 29.43"><title>loader2</title><path d="M40.89,23.56a12.62,12.62,0,0,0,5.43,1.28c1.87,0,2.6-.7,2.6-1.52S48,22,45.56,21.48c-3.41-.75-5.89-1.86-5.89-4.93,0-2.86,2.36-4.84,6-4.84A15.94,15.94,0,0,1,51.9,13l-1.34,3a14.63,14.63,0,0,0-4.94-1c-1.55,0-2.33.55-2.33,1.4s1,1.28,3.5,1.81c3.68.76,5.81,2,5.81,4.93s-2.31,5-6.36,5a14,14,0,0,1-6.87-1.52Z" transform="translate(-1.02 -5.23)" style="fill:#325ea9"/><path d="M70.07,19.32V28h-4V19.19c0-2.45-1.25-3.65-3.59-3.65a5.63,5.63,0,0,0-3.64,1.2V28h-4V6.34h4v6.88a8.32,8.32,0,0,1,4.32-1.09c4.75,0,6.92,2.13,6.92,7.19" transform="translate(-1.02 -5.23)" style="fill:#325ea9"/><path d="M89.36,19.91a8.69,8.69,0,0,1-17.34,0,8.68,8.68,0,0,1,17.34,0m-4,0a4.67,4.67,0,1,0-4.67,4.52,4.61,4.61,0,0,0,4.67-4.52" transform="translate(-1.02 -5.23)" style="fill:#325ea9"/><path d="M116.68,19.07v9h-4V19.19c0-2.45-1.23-3.65-3.45-3.65a4.38,4.38,0,0,0-3.16,1.26,8.3,8.3,0,0,1,.18,2.45V28h-4V19.19c0-2.42-1-3.65-3.1-3.65a4.63,4.63,0,0,0-3.32,1.26V28h-4V12h4v1a6.79,6.79,0,0,1,4.06-1.31c2.43,0,4.13.62,5.2,2a7.12,7.12,0,0,1,4.9-2c4.62,0,6.73,2.19,6.73,7.4" transform="translate(-1.02 -5.23)" style="fill:#325ea9"/><path d="M136.28,19.91a8.69,8.69,0,0,1-17.34,0,8.68,8.68,0,0,1,17.34,0m-4,0a4.67,4.67,0,1,0-4.67,4.52,4.61,4.61,0,0,0,4.67-4.52" transform="translate(-1.02 -5.23)" style="fill:#325ea9"/><path d="M153.52,12,146.9,28.88c-1.42,3.64-5.2,4.7-8.57,4.7-.54,0-1,0-1.45,0l.5-3.1h.52c2.2,0,4.17-.56,5.08-2.41h-.32L136.39,12h4.43l4.05,10.44h.28l4-10.44Z" transform="translate(-1.02 -5.23)" style="fill:#325ea9"/><path d="M7.38,32a14.71,14.71,0,0,0,23.07-12.1,14.83,14.83,0,0,0-.39-3.35A9.57,9.57,0,0,0,24.22,14C20.27,14,13.74,17.81,7.38,32" transform="translate(-1.02 -5.23)" style="fill:#325ea9"/><path d="M19.27,11a14.19,14.19,0,0,1,10.5,4.5A14.71,14.71,0,0,0,1.19,22.15C4.37,18.71,12.26,11,19.27,11" transform="translate(-1.02 -5.23)" style="fill:#325ea9"/></svg>